<?xml version="1.0" encoding="utf-8"?>
<!-- Generator: Adobe Illustrator 22.0.0, SVG Export Plug-In . SVG Version: 6.00 Build 0)  -->
<svg version="1.1" id="Слой_1" xmlns="http://www.w3.org/2000/svg" xmlns:xlink="http://www.w3.org/1999/xlink" x="0px" y="0px"
	 viewBox="0 0 16 16" style="enable-background:new 0 0 16 16;" xml:space="preserve">
<style type="text/css">
	.st0{fill:#EC1C24;}
</style>
<path class="st0" d="M13.9,7.4c0-0.3,0-3.9,0-3.9s-0.8,0-1.2,0c0,0,0,0.1,0,0.1c0,1.8,0,4.8,0,6.6c-0.1,2.4-2.3,4.4-4.9,4.5
	c-3,0.1-5.4-2-5.4-4.8c0-1.3,0-2.7,0-4V3.9V3.6c-0.3,0-1.2,0-1.2,0c0,0,0,0.3,0,0.4c0,1.7,0,5.4,0,6.1c0,1.4,0.5,2.7,1.5,3.7
	c0.4,0.4,0.8,0.8,1.4,1.1c3.3,2,6.4,0.4,6.4,0.4s0.5-0.3,0.8-0.5c1.5-1.1,2.5-2.4,2.6-4.2C14,9.5,13.9,8.5,13.9,7.4"/>
<path class="st0" d="M3.6,3.6h1.2c0,0.1,0,3,0,6.4c0,1.5,1.3,2.7,2.8,2.7c1.6,0,2.9-1.2,2.9-2.6c0-3.4,0-6.3,0-6.4h1.2
	c0,0.1,0,3,0,6.4c0,1.9-1.5,3.5-3.5,3.7c-2.1,0.2-3.9-0.9-4.4-2.7c-0.1-0.3-0.1-0.6-0.1-1C3.6,6.6,3.6,3.7,3.6,3.6"/>
<path class="st0" d="M9.3,3v0.3c0,3.9,0,3.8,0,7.7c0,0.3-0.1,0.5-0.4,0.7c-0.2,0.1-0.5,0.2-0.8,0.4c0-0.2,0-0.2,0-0.3
	c0-4.5,0-4.9,0-9.5C8.2,2,8.2,2,8.5,2c1.7,0,3.4,0,5.1,0C13.9,2,14,2,14,2.2c0,0.2,0,0.5,0,0.8H9.3z"/>
<path class="st0" d="M5.9,3H1.3c0-0.3,0-0.6,0-0.9C1.3,2,1.5,2,1.6,2c1.2,0,2.4,0,3.5,0c0.5,0,1.1,0,1.6,0C7,1.9,7.1,2,7.1,2.3
	c0,4.5,0,4.8,0,9.3V12c-0.6,0-1.2-0.5-1.2-1V3.4V3z"/>
<rect x="1.3" y="0.2" class="st0" width="12.7" height="1.1"/>
</svg>
