<?xml version="1.0" encoding="UTF-8" standalone="no"?>
<!-- Created with Inkscape (http://www.inkscape.org/) -->

<svg
   version="1.1"
   id="svg2"
   width="426.66666"
   height="120"
   viewBox="0 0 426.66666 120"
   sodipodi:docname="UnicalTexnikLogo.ai"
   xmlns:inkscape="http://www.inkscape.org/namespaces/inkscape"
   xmlns:sodipodi="http://sodipodi.sourceforge.net/DTD/sodipodi-0.dtd"
   xmlns="http://www.w3.org/2000/svg"
   xmlns:svg="http://www.w3.org/2000/svg">
  <defs
     id="defs6">
    <clipPath
       clipPathUnits="userSpaceOnUse"
       id="clipPath16">
      <path
         d="M 0,90 H 320 V 0 H 0 Z"
         id="path14" />
    </clipPath>
  </defs>
  <sodipodi:namedview
     id="namedview4"
     pagecolor="#ffffff"
     bordercolor="#000000"
     borderopacity="0.25"
     inkscape:showpageshadow="2"
     inkscape:pageopacity="0.0"
     inkscape:pagecheckerboard="0"
     inkscape:deskcolor="#d1d1d1" />
  <g
     id="g8"
     inkscape:groupmode="layer"
     inkscape:label="UnicalTexnikLogo"
     transform="matrix(1.3333333,0,0,-1.3333333,0,120)">
    <g
       id="g10">
      <g
         id="g12"
         clip-path="url(#clipPath16)">
        <g
           id="g18"
           transform="translate(1.1265,34.2236)">
          <path
             d="M 0,0 V 24.763 H 6.339 V 0.948 c 0,-1.877 0.338,-3.262 1.015,-4.154 0.677,-0.894 1.759,-1.34 3.242,-1.34 1.535,0 2.622,0.432 3.259,1.291 0.638,0.863 0.956,2.265 0.956,4.203 v 23.815 h 6.335 V 0 c 0,-6.476 -3.515,-9.713 -10.55,-9.713 -1.815,0 -3.393,0.217 -4.733,0.649 -1.341,0.431 -2.446,1.061 -3.315,1.895 -0.869,0.832 -1.512,1.845 -1.925,3.04 C 0.208,-2.935 0,-1.557 0,0"
             style="fill:#ed1c24;fill-opacity:1;fill-rule:nonzero;stroke:none"
             id="path20" />
        </g>
        <g
           id="g22"
           transform="translate(26.9492,25.1191)">
          <path
             d="M 0,0 V 33.866 H 6.846 L 16.144,9.241 c -0.55,3.079 -0.826,7.286 -0.826,12.622 v 12.003 h 5.966 V 0 H 14.438 L 5.13,24.579 C 5.687,21.838 5.966,17.63 5.966,11.957 V 0 Z"
             style="fill:#ed1c24;fill-opacity:1;fill-rule:nonzero;stroke:none"
             id="path24" />
        </g>
        <path
           d="m 53,58.986 h 6.339 V 25.119 H 53 Z"
           style="fill:#ed1c24;fill-opacity:1;fill-rule:nonzero;stroke:none"
           id="path26" />
        <g
           id="g28"
           transform="translate(77.4795,47.9683)">
          <path
             d="m 0,0 v 0.745 c 0,2.114 -0.286,3.598 -0.858,4.449 -0.573,0.851 -1.537,1.277 -2.893,1.277 -1.363,0 -2.344,-0.43 -2.943,-1.287 -0.598,-0.86 -0.897,-2.341 -0.897,-4.439 v -13.322 c 0,-2.16 0.291,-3.676 0.876,-4.551 0.582,-0.875 1.556,-1.311 2.92,-1.311 1.31,0 2.269,0.444 2.879,1.34 0.61,0.891 0.916,2.4 0.916,4.522 v 1.833 h 6.383 v -1.545 c 0,-2.2 -0.308,-4.137 -0.925,-5.82 -0.619,-1.679 -1.681,-3.015 -3.191,-4.008 -1.509,-0.993 -3.512,-1.489 -6.012,-1.489 -3.839,0 -6.518,1.025 -8.037,3.075 -1.522,2.051 -2.282,4.798 -2.282,8.242 V 0 c 0,3.932 0.87,6.855 2.609,8.768 1.737,1.913 4.338,2.868 7.801,2.868 2.108,0 3.92,-0.4 5.436,-1.201 C 3.3,9.632 4.445,8.474 5.22,6.958 5.995,5.443 6.383,3.654 6.383,1.593 V 0 Z"
             style="fill:#ed1c24;fill-opacity:1;fill-rule:nonzero;stroke:none"
             id="path30" />
        </g>
        <g
           id="g32"
           transform="translate(95.4751,38.9551)">
          <path
             d="M 0,0 H 5.604 L 3.062,15.771 Z m -9.581,-13.836 8.473,33.866 h 8.519 l 7.4,-33.866 H 7.965 l -1.571,8.818 h -7.173 l -1.988,-8.818 z"
             style="fill:#ed1c24;fill-opacity:1;fill-rule:nonzero;stroke:none"
             id="path34" />
        </g>
        <g
           id="g36"
           transform="translate(112.9282,25.1191)">
          <path
             d="M 0,0 V 33.866 H 6.337 V 5.164 H 17.859 V 0 Z"
             style="fill:#ed1c24;fill-opacity:1;fill-rule:nonzero;stroke:none"
             id="path38" />
        </g>
        <g
           id="g40"
           transform="translate(209.207,58.9858)">
          <path
             d="m 0,0 v -5.44 h -7.263 v -28.427 h -6.338 V -5.44 h -7.443 V 0 Z"
             style="fill:#ed1c24;fill-opacity:1;fill-rule:nonzero;stroke:none"
             id="path42" />
        </g>
        <g
           id="g44"
           transform="translate(212.3135,25.1191)">
          <path
             d="M 0,0 V 33.866 H 17.86 V 28.428 H 6.339 V 20.731 H 16.844 V 15.623 H 6.339 V 5.164 H 17.86 V 0 Z"
             style="fill:#ed1c24;fill-opacity:1;fill-rule:nonzero;stroke:none"
             id="path46" />
        </g>
        <g
           id="g48"
           transform="translate(240.5781,42.5273)">
          <path
             d="m 0,0 -7.726,16.458 h 7.352 L 3.933,5.441 8.473,16.458 h 7.118 L 7.354,0 15.874,-17.408 H 8.79 L 3.933,-4.924 -1.106,-17.408 h -6.949 z"
             style="fill:#ed1c24;fill-opacity:1;fill-rule:nonzero;stroke:none"
             id="path50" />
        </g>
        <g
           id="g52"
           transform="translate(259.5557,25.1191)">
          <path
             d="M 0,0 V 33.866 H 6.847 L 16.142,9.241 c -0.548,3.079 -0.826,7.286 -0.826,12.622 v 12.003 h 5.966 V 0 H 14.438 L 5.13,24.579 C 5.686,21.838 5.964,17.63 5.964,11.957 V 0 Z"
             style="fill:#ed1c24;fill-opacity:1;fill-rule:nonzero;stroke:none"
             id="path54" />
        </g>
        <path
           d="m 285.604,58.986 h 6.338 V 25.119 h -6.338 z"
           style="fill:#ed1c24;fill-opacity:1;fill-rule:nonzero;stroke:none"
           id="path56" />
        <g
           id="g58"
           transform="translate(296.6641,25.1191)">
          <path
             d="M 0,0 V 33.866 H 6.339 V 19.183 l 7.681,14.683 h 7.171 L 12.72,19.183 21.462,0 H 14.394 L 8.835,13.514 6.339,10.182 V 0 Z"
             style="fill:#ed1c24;fill-opacity:1;fill-rule:nonzero;stroke:none"
             id="path60" />
        </g>
        <g
           id="g62"
           transform="translate(72.5571,10.3174)">
          <path
             d="M 0,0 C 0,3.817 2.262,6.146 5.358,6.146 6.976,6.146 8.04,5.4 8.724,4.687 L 7.91,3.705 C 7.317,4.324 6.568,4.822 5.397,4.822 3.044,4.822 1.534,2.99 1.534,0.039 c 0,-2.974 1.386,-4.838 3.878,-4.838 0.836,0 1.643,0.254 2.103,0.695 v 3.082 H 5.042 V 0.226 H 8.87 V -4.749 C 8.12,-5.542 6.84,-6.124 5.27,-6.124 2.191,-6.124 0,-3.844 0,0"
             style="fill:#ed1c24;fill-opacity:1;fill-rule:nonzero;stroke:none"
             id="path64" />
        </g>
        <g
           id="g66"
           transform="translate(89.314,18.1963)">
          <path
             d="M 0,0 C 0,0.52 0.368,0.883 0.872,0.883 1.374,0.883 1.742,0.52 1.742,0 1.742,-0.519 1.374,-0.883 0.872,-0.883 0.368,-0.883 0,-0.519 0,0 m -3.65,0 c 0,0.52 0.367,0.883 0.87,0.883 0.504,0 0.87,-0.363 0.87,-0.883 0,-0.519 -0.366,-0.883 -0.87,-0.883 -0.503,0 -0.87,0.364 -0.87,0.883 m -1.497,-8.897 v 6.948 h 1.484 v -6.99 c 0,-2.846 1.186,-3.74 2.711,-3.74 1.545,0 2.768,0.894 2.768,3.74 v 6.99 h 1.423 v -6.948 c 0,-3.8 -1.809,-5.105 -4.191,-5.105 -2.385,0 -4.195,1.305 -4.195,5.105"
             style="fill:#ed1c24;fill-opacity:1;fill-rule:nonzero;stroke:none"
             id="path68" />
        </g>
        <g
           id="g70"
           transform="translate(95.0156,10.3174)">
          <path
             d="m 0,0 c 0,3.817 2.217,6.146 5.181,6.146 1.417,0 2.527,-0.699 3.21,-1.459 L 7.577,3.705 C 6.962,4.369 6.19,4.822 5.207,4.822 3,4.822 1.534,2.99 1.534,0.039 c 0,-2.974 1.401,-4.838 3.613,-4.838 1.114,0 1.961,0.491 2.706,1.329 L 8.669,-4.416 C 7.746,-5.501 6.602,-6.124 5.087,-6.124 2.18,-6.124 0,-3.844 0,0"
             style="fill:#ed1c24;fill-opacity:1;fill-rule:nonzero;stroke:none"
             id="path72" />
        </g>
        <g
           id="g74"
           transform="translate(110.7061,18.1963)">
          <path
             d="M 0,0 C 0,0.52 0.368,0.883 0.872,0.883 1.374,0.883 1.742,0.52 1.742,0 1.742,-0.519 1.374,-0.883 0.872,-0.883 0.368,-0.883 0,-0.519 0,0 m -3.65,0 c 0,0.52 0.367,0.883 0.87,0.883 0.504,0 0.87,-0.363 0.87,-0.883 0,-0.519 -0.366,-0.883 -0.87,-0.883 -0.503,0 -0.87,0.364 -0.87,0.883 m -1.497,-8.897 v 6.948 h 1.484 v -6.99 c 0,-2.846 1.186,-3.74 2.711,-3.74 1.545,0 2.768,0.894 2.768,3.74 v 6.99 h 1.423 v -6.948 c 0,-3.8 -1.809,-5.105 -4.191,-5.105 -2.385,0 -4.195,1.305 -4.195,5.105"
             style="fill:#ed1c24;fill-opacity:1;fill-rule:nonzero;stroke:none"
             id="path76" />
        </g>
        <g
           id="g78"
           transform="translate(117.0854,16.2471)">
          <path
             d="m 0,0 h 1.534 l 4.225,-7.442 1.26,-2.451 H 7.091 C 7.016,-8.697 6.9,-7.363 6.9,-6.126 V 0 H 8.313 V -11.837 H 6.778 L 2.554,-4.389 1.293,-1.944 H 1.222 c 0.074,-1.199 0.191,-2.46 0.191,-3.698 v -6.195 H 0 Z"
             style="fill:#ed1c24;fill-opacity:1;fill-rule:nonzero;stroke:none"
             id="path80" />
        </g>
        <g
           id="g82"
           transform="translate(133.6987,18.1963)">
          <path
             d="M 0,0 C 0,0.52 0.368,0.883 0.872,0.883 1.374,0.883 1.742,0.52 1.742,0 1.742,-0.519 1.374,-0.883 0.872,-0.883 0.368,-0.883 0,-0.519 0,0 m -3.65,0 c 0,0.52 0.367,0.883 0.87,0.883 0.504,0 0.87,-0.363 0.87,-0.883 0,-0.519 -0.366,-0.883 -0.87,-0.883 -0.503,0 -0.87,0.364 -0.87,0.883 m -1.497,-8.897 v 6.948 h 1.484 v -6.99 c 0,-2.846 1.186,-3.74 2.711,-3.74 1.545,0 2.768,0.894 2.768,3.74 v 6.99 h 1.423 v -6.948 c 0,-3.8 -1.809,-5.105 -4.191,-5.105 -2.385,0 -4.195,1.305 -4.195,5.105"
             style="fill:#ed1c24;fill-opacity:1;fill-rule:nonzero;stroke:none"
             id="path84" />
        </g>
        <g
           id="g86"
           transform="translate(139.2764,5.3066)">
          <path
             d="M 0,0 6.147,9.664 H 0.554 v 1.275 h 7.43 V 10.044 L 1.837,0.379 h 6.206 v -1.275 l -8.043,0 z"
             style="fill:#ed1c24;fill-opacity:1;fill-rule:nonzero;stroke:none"
             id="path88" />
        </g>
        <g
           id="g90"
           transform="translate(149.1094,10.2627)">
          <path
             d="M 0,0 C 0,0.144 0.011,0.299 0.026,0.454 H 8.611 V -0.688 H 1.512 c 0.096,-2.621 1.383,-4.132 3.275,-4.132 2.162,0 3.491,1.725 3.491,4.914 0,3.151 -1.214,4.859 -3.542,4.859 -1.155,0 -2.151,-0.496 -2.843,-1.175 L 1.177,4.812 C 2.005,5.61 3.268,6.201 4.859,6.201 7.897,6.201 9.751,4.03 9.751,0.094 9.751,-3.839 7.794,-6.068 4.787,-6.068 1.779,-6.068 0,-3.706 0,0"
             style="fill:#ed1c24;fill-opacity:1;fill-rule:nonzero;stroke:none"
             id="path92" />
        </g>
        <g
           id="g94"
           transform="translate(164.2617,10.3174)">
          <path
             d="m 0,0 c 0,3.817 2.262,6.146 5.357,6.146 1.62,0 2.684,-0.746 3.367,-1.459 L 7.91,3.705 C 7.318,4.324 6.569,4.822 5.396,4.822 3.044,4.822 1.533,2.99 1.533,0.039 c 0,-2.974 1.388,-4.838 3.878,-4.838 0.838,0 1.644,0.254 2.104,0.695 v 3.082 H 5.043 V 0.226 H 8.869 V -4.749 C 8.119,-5.542 6.84,-6.124 5.27,-6.124 2.192,-6.124 0,-3.844 0,0"
             style="fill:#ed1c24;fill-opacity:1;fill-rule:nonzero;stroke:none"
             id="path96" />
        </g>
        <g
           id="g98"
           transform="translate(181.0186,18.1963)">
          <path
             d="M 0,0 C 0,0.52 0.369,0.883 0.871,0.883 1.375,0.883 1.741,0.52 1.741,0 1.741,-0.519 1.375,-0.883 0.871,-0.883 0.369,-0.883 0,-0.519 0,0 m -3.648,0 c 0,0.52 0.366,0.883 0.87,0.883 0.502,0 0.868,-0.363 0.868,-0.883 0,-0.519 -0.366,-0.883 -0.868,-0.883 -0.504,0 -0.87,0.364 -0.87,0.883 m -1.499,-8.897 v 6.948 h 1.485 v -6.99 c 0,-2.846 1.184,-3.74 2.71,-3.74 1.547,0 2.768,0.894 2.768,3.74 v 6.99 h 1.422 v -6.948 c 0,-3.8 -1.808,-5.105 -4.19,-5.105 -2.384,0 -4.195,1.305 -4.195,5.105"
             style="fill:#ed1c24;fill-opacity:1;fill-rule:nonzero;stroke:none"
             id="path100" />
        </g>
        <g
           id="g102"
           transform="translate(186.7197,10.3174)">
          <path
             d="m 0,0 c 0,3.817 2.218,6.146 5.183,6.146 1.415,0 2.526,-0.699 3.208,-1.459 L 7.579,3.705 C 6.963,4.369 6.191,4.822 5.207,4.822 3,4.822 1.535,2.99 1.535,0.039 c 0,-2.974 1.402,-4.838 3.612,-4.838 1.116,0 1.963,0.491 2.707,1.329 L 8.67,-4.416 C 7.746,-5.501 6.604,-6.124 5.087,-6.124 2.181,-6.124 0,-3.844 0,0"
             style="fill:#ed1c24;fill-opacity:1;fill-rule:nonzero;stroke:none"
             id="path104" />
        </g>
        <g
           id="g106"
           transform="translate(204.624,4.4512)">
          <path
             d="m 0,0 1.544,0.119 c 0.47,-1.25 1.614,-1.872 2.993,-1.872 0.52,0 0.913,0.078 1.225,0.171 L 6.048,-2.747 C 5.697,-2.887 5.079,-3.02 4.381,-3.02 2.141,-3.02 0.63,-1.725 0,0 m 4.262,5.919 c 0,2.949 -1.371,4.77 -3.454,4.77 -2.086,0 -3.455,-1.821 -3.455,-4.77 0,-3.015 1.369,-4.928 3.455,-4.928 2.083,0 3.454,1.913 3.454,4.928 m -8.445,0 c 0,3.792 2.058,6.094 4.991,6.094 2.931,0 4.989,-2.308 4.989,-6.094 0,-3.79 -2.058,-6.177 -4.989,-6.177 -2.933,0 -4.991,2.387 -4.991,6.177"
             style="fill:#ed1c24;fill-opacity:1;fill-rule:nonzero;stroke:none"
             id="path108" />
        </g>
        <path
           d="m 213.283,9.218 h 5.376 V 8.017 h -5.376 z m 1.873,7.028 h 1.677 l 3.949,-11.835 h -1.572 l -2.037,6.61 c -0.418,1.323 -0.795,2.624 -1.168,3.99 h -0.072 c -0.362,-1.374 -0.737,-2.667 -1.155,-3.99 l -2.058,-6.61 h -1.512 z"
           style="fill:#ed1c24;fill-opacity:1;fill-rule:nonzero;stroke:none"
           id="path110" />
        <g
           id="g112"
           transform="translate(223.8877,14.9707)">
          <path
             d="M 0,0 H -3.53 V 1.276 H 5.019 V 0 H 1.485 V -10.561 H 0 Z"
             style="fill:#ed1c24;fill-opacity:1;fill-rule:nonzero;stroke:none"
             id="path114" />
        </g>
        <path
           d="m 230.998,16.246 h 1.486 V 4.41 h -1.486 z"
           style="fill:#ed1c24;fill-opacity:1;fill-rule:nonzero;stroke:none"
           id="path116" />
        <g
           id="g118"
           transform="translate(235.6777,16.2471)">
          <path
             d="M 0,0 H 1.534 L 5.76,-7.442 7.019,-9.893 H 7.091 C 7.016,-8.697 6.9,-7.363 6.9,-6.126 V 0 H 8.313 V -11.837 H 6.778 l -4.224,7.448 -1.261,2.445 h -0.07 c 0.073,-1.199 0.188,-2.46 0.188,-3.698 v -6.195 H 0 Z"
             style="fill:#ed1c24;fill-opacity:1;fill-rule:nonzero;stroke:none"
             id="path120" />
        </g>
        <g
           id="g122"
           transform="translate(183.1426,56.7314)">
          <path
             d="m 0,0 c 0.015,1.444 0.012,16.856 0.012,16.856 0,0 -3.302,0.002 -4.646,0 0,0 -0.003,-0.389 -0.003,-0.5 -0.004,-7.647 0.148,-20.849 -0.071,-28.801 -0.287,-10.433 -9.211,-19.205 -19.524,-19.523 -11.78,-0.364 -21.245,8.901 -21.278,20.843 -0.017,5.815 -0.005,11.634 -0.005,17.452 v 9.127 1.451 c -1.229,0 -4.674,-0.057 -4.674,-0.057 10e-4,-0.132 0.003,-1.447 0.003,-1.605 0.04,-7.195 -0.013,-23.335 0.026,-26.531 0.077,-6.022 1.883,-11.657 5.75,-16.264 1.567,-1.865 3.225,-3.499 5.354,-4.872 12.902,-8.502 25.372,-1.551 25.372,-1.551 0,0 1.919,1.096 3.14,2.013 6.1,4.574 9.778,10.64 10.35,18.344 C 0.142,-9.1 -0.041,-4.54 0,0"
             style="fill:#ed1c24;fill-opacity:1;fill-rule:nonzero;stroke:none"
             id="path124" />
        </g>
        <g
           id="g126"
           transform="translate(142.1323,73.5786)">
          <path
             d="m 0,0 h 4.598 c 0,-0.475 -0.012,-13.132 0.004,-28 0.007,-6.408 4.987,-11.542 11.185,-11.596 6.34,-0.057 11.458,5.055 11.468,11.535 0.02,14.866 0.006,27.479 0.006,28.023 h 4.587 c 0.02,-0.325 0.089,-13.064 0.045,-28.08 -0.021,-8.141 -6.025,-15.049 -13.774,-16.012 -8.13,-1.009 -15.514,3.93 -17.584,11.843 -0.356,1.362 -0.555,2.812 -0.559,4.22 C -0.063,-13.052 -0.02,-0.437 0,0"
             style="fill:#ed1c24;fill-opacity:1;fill-rule:nonzero;stroke:none"
             id="path128" />
        </g>
        <g
           id="g130"
           transform="translate(164.9424,75.9414)">
          <path
             d="m 0,0 v -1.419 c 0,-17.191 -0.02,-16.371 0.033,-33.562 0.004,-1.332 -0.395,-2.246 -1.45,-2.889 -0.958,-0.583 -1.967,-1.084 -3.157,-1.732 -0.039,0.704 -0.078,1.062 -0.078,1.42 -0.002,19.784 -0.002,21.552 -10e-4,41.334 0,1.476 10e-4,1.477 1.431,1.477 6.739,0 13.476,-0.02 20.213,0.024 C 17.985,4.66 18.297,4.368 18.224,3.382 18.142,2.304 18.205,1.215 18.205,0 Z"
             style="fill:#ed1c24;fill-opacity:1;fill-rule:nonzero;stroke:none"
             id="path132" />
        </g>
        <g
           id="g134"
           transform="translate(151.1885,75.9028)">
          <path
             d="m 0,0 h -18.204 c 0,1.423 -0.048,2.766 0.05,4.096 0.015,0.216 0.68,0.545 1.047,0.548 4.664,0.037 9.328,0.023 13.994,0.025 2.147,0 4.296,-0.063 6.442,0.026 C 4.428,4.739 4.668,4.363 4.667,3.3 4.637,-16.219 4.646,-17.725 4.646,-37.244 v -1.895 C 2.398,-39.291 0,-37.077 0,-34.936 v 33.45 z"
             style="fill:#ed1c24;fill-opacity:1;fill-rule:nonzero;stroke:none"
             id="path136" />
        </g>
        <path
           d="m 183.147,83.779 h -50.175 v 4.653 h 50.175 z"
           style="fill:#ed1c24;fill-opacity:1;fill-rule:nonzero;stroke:none"
           id="path138" />
      </g>
    </g>
  </g>
</svg>
